<svg height="512pt" viewBox="0 -48 512 512" width="512pt" xmlns="http://www.w3.org/2000/svg"><path d="m0 256v48h320c4.414062 0 8-3.585938 8-8v-40zm112 32h-32v-16h32zm152 0h-16v-16h16zm32 0h-16v-16h16zm0 0"/><path d="m0 0v240h328v-232c0-4.414062-3.585938-8-8-8zm304 208c0 4.425781-3.574219 8-8 8h-32v-16h24v-24h16zm0 0"/><path d="m400 304c-13.230469 0-24 10.769531-24 24s10.769531 24 24 24 24-10.769531 24-24-10.769531-24-24-24zm8 32h-16v-16h16zm0 0"/><path d="m41.488281 352h109.023438l-6.289063-32h-96.445312zm0 0"/><path d="m23.71875 369.207031-19.949219 12.441407c-2.34375 1.464843-3.769531 4.03125-3.769531 6.792968v19.558594c0 4.414062 3.585938 8 8 8h176c4.414062 0 8-3.585938 8-8v-19.558594c0-2.761718-1.425781-5.328125-3.769531-6.792968l-19.949219-12.441407c-1.265625-.792969-2.738281-1.207031-4.234375-1.207031h-136.09375c-1.496094 0-2.96875.414062-4.234375 1.207031zm0 0"/><path d="m504.039062 17-160.039062-.769531v295.769531c0 4.425781-3.574219 8-8 8h-48v88c0 4.425781 3.574219 8 8 8h208c4.425781 0 8-3.574219 8-8v-383c0-4.40625-3.550781-7.976562-7.960938-8zm-144.039062 79h80v16h-80zm0 72h40v16h-40zm40 200c-22.054688 0-40-17.945312-40-40s17.945312-40 40-40 40 17.945312 40 40-17.945312 40-40 40zm72-112c0 4.425781-3.574219 8-8 8h-104v-16h96v-24h-96v-16h104c4.425781 0 8 3.574219 8 8zm-56-72v-16h48v16zm56-48c0 4.425781-3.574219 8-8 8h-104v-16h96v-48h-96v-16h104c4.425781 0 8 3.574219 8 8zm0 0"/></svg>